# AST/ASF file generated using VICON BodyLanguage
# -----------------------------------------------
:version 1.10
:name VICON
:units
  mass 1.0
  length 0.45
  angle deg
:documentation
   .ast/.asf automatically generated from VICON data using
   VICON BodyBuilder and BodyLanguage model FoxedUp or BRILLIANT.MOD
:root
   order TX TY TZ RX RY RZ
   axis XYZ
   position 0 0 0  
   orientation 0 0 0 
:bonedata
  begin
     id 1 
     name lhipjoint
     direction 0.702568 -0.596508 0.388042 
     length 2.56661 
     axis 0 0 0  XYZ
  end
  begin
     id 2 
     name lfemur
     direction 0.34202 -0.939693 0  
     length 6.58374  
     axis 0 0 20  XYZ
    dof rx ry rz
    limits (-160.0 20.0)
           (-70.0 70.0)
           (-60.0 70.0)
  end
  begin
     id 3 
     name ltibia
     direction 0.34202 -0.939693 0   
     length 6.62538   
     axis 0 0 20   XYZ
    dof rx
    limits (-10.0 170.0)
  end
  begin
     id 4 
     name lfoot
     direction 0.10455 -0.287249 0.952133   
     length 2.26699   
     axis -90 7.62852e-016 20   XYZ
    dof rx rz
    limits (-45.0 90.0)
           (-70.0 20.0)
  end
  begin
     id 5 
     name ltoes
     direction 1.53572e-011 -4.22322e-011 1   
     length 1.12949   
     axis -90 7.62852e-016 20   XYZ
    dof rx
    limits (-90.0 20.0)
  end
  begin
     id 6 
     name rhipjoint
     direction -0.728055 -0.574632 0.373811   
     length 2.66432  
     axis 0 0 0  XYZ 
  end
  begin
     id 7 
     name rfemur
     direction -0.34202 -0.939693 0   
     length 6.66732   
     axis 0 0 -20   XYZ
    dof rx ry rz
    limits (-160.0 20.0)
           (-70.0 70.0)
           (-70.0 60.0)
  end
  begin
     id 8 
     name rtibia
     direction -0.34202 -0.939693 0   
     length 6.59288   
     axis 0 0 -20   XYZ
    dof rx
    limits (-10.0 170.0)
 end
 begin
     id 9 
     name rfoot
     direction -0.119193 -0.327479 0.93731   
     length 2.38061  
     axis -90 -7.62852e-016 -20   XYZ
    dof rx rz
    limits (-45.0 90.0)
           (-20.0 70.0)
  end
  begin
     id 10 
     name rtoes
     direction -1.53547e-011 -4.21827e-011 1   
     length 1.17899   
     axis -90 -7.62852e-016 -20   XYZ
    dof rx
    limits (-90.0 20.0)
  end
  begin
     id 11 
     name lowerback
     direction -0.000416114 0.999912 -0.0132284   
     length 2.12109   
     axis 0 0 0   XYZ
    dof rx ry rz
    limits (-20.0 45.0)
           (-30.0 30.0)
           (-30.0 30.0)
  end
  begin
     id 12 
     name upperback
     direction -0.00136371 0.99809 0.0617608   
     length 2.10067   
     axis 0 0 0   XYZ
    dof rx ry rz
    limits (-20.0 45.0)
           (-30.0 30.0)
           (-30.0 30.0)
  end
  begin
     id 13 
     name thorax
     direction -3.43026e-005 0.997776 0.0666515   
     length 2.10618   
     axis 0 0 0   XYZ
    dof rx ry rz
    limits (-20.0 45.0)
           (-30.0 30.0)
           (-30.0 30.0)
  end
  begin
     id 14 
     name lowerneck
     direction 0.0398646 0.998418 0.0396592   
     length 1.83817   
     axis 0 0 0   XYZ
    dof rx ry rz
    limits (-20.0 45.0)
           (-30.0 30.0)
           (-30.0 30.0)
  end
  begin
     id 15 
     name upperneck
     direction -0.0367268 0.961527 -0.272244   
     length 1.81975   
     axis 0 0 0   XYZ
    dof rx ry rz
    limits (-20.0 45.0)
           (-30.0 30.0)
           (-30.0 30.0)
  end
  begin
     id 16
     name head
     direction -0.0182665 0.99536 -0.0944669  
     length 1.86026  
     axis 0 0 0   XYZ
    dof rx ry rz
    limits (-20.0 45.0)
           (-30.0 30.0)
           (-30.0 30.0)
  end
  begin
     id 17 
     name lclavicle
     direction 0.924239 0.361045 0.124212  
     length 3.26878  
     axis 0 0 0   XYZ
    dof ry rz
    limits (-20.0 10.0)
           (0.0 20.0)
  end
  begin
     id 18 
     name lhumerus
     direction 1 -4.48968e-011 -2.56583e-027   
     length 4.58538   
     axis 180 -30 -90   XYZ
    dof rx ry rz
    limits (-60.0 90.0)
           (-90.0 90.0)
           (-90.0 90.0)
  end
  begin
     id 19
     name lradius
     direction 1 -4.4898e-011 -5.50375e-027   
     length 2.68935   
     axis 180 -30 -90   XYZ
    dof rx
    limits (-10.0 170.0)
  end
  begin
     id 20
     name lwrist
     direction 1 -4.48939e-011 -1.48955e-026   
     length 1.34468   
     axis 9.0955e-015 90 90   XYZ
    dof ry
    limits (-180.0 0.0)
 end
  begin
     id 21 
     name lhand
     direction 1 -4.48936e-011 -2.97907e-026   
     length 0.585058   
     axis 1.90115e-014 90 90   XYZ
    dof rx rz
    limits (-90.0 90.0)
           (-45.0 45.0)
  end
  begin
     id 22 
     name lfingers
     direction 1 -4.49082e-011 -5.96235e-026   
     length 0.471689   
     axis 3.80223e-014 90 90   XYZ
    dof rx
    limits (0.0 90.0)
  end
  begin
     id 23
     name lthumb
     direction 0.707107 -6.3489e-011 0.707107   
     length 0.677253   
     axis -90 45 -3.84942e-014   XYZ
    dof rx rz
    limits (-45.0 45.0)
           (-45.0 45.0)
  end
  begin
     id 24 
     name rclavicle
     direction -0.923098 0.371783 0.0983239   
     length 3.19656  
     axis 0 0 0   XYZ 
    dof ry rz
    limits (-10.0 20.0)
           (-20.0 0.0)
  end
  begin
     id 25 
     name rhumerus
     direction -1 -4.48976e-011 -2.5492e-027  
     length 4.4745   
     axis 180 30 90   XYZ
    dof rx ry rz
    limits (-90.0 60.0)
           (-90.0 90.0)
           (-90.0 90.0)
  end
  begin
     id 26 
     name rradius
     direction -1 -4.48941e-011 -4.36555e-027   
     length 2.93896   
     axis 180 30 90   XYZ
    dof rx
    limits (-10.0 170.0)
  end
  begin
     id 27 
     name rwrist
     direction -1 -4.49044e-011 -1.49032e-026   
     length 1.46948   
     axis 9.0955e-015 -90 -90   XYZ
    dof ry
    limits (-180.0 0.0)
  end
  begin
     id 28
     name rhand
     direction -1 -4.48826e-011 -2.97749e-026   
     length 0.405092   
     axis 1.90115e-014 -90 -90   XYZ
    dof rx rz
    limits (-90.0 90.0)
           (-45.0 45.0)
  end
  begin
     id 29
     name rfingers
     direction -1 -4.49209e-011 -5.96602e-026   
     length 0.326596   
     axis 3.80223e-014 -90 -90   XYZ
    dof rx
    limits (0.0 90.0)
  end
  begin
     id 30
     name rthumb
     direction -0.707107 -6.34776e-011 0.707107   
     length 0.468928   
     axis -90 -45 3.84942e-014   XYZ
    dof rx rz
    limits (-45.0 45.0)
           (-45.0 45.0)
  end
:hierarchy
  begin
    root lhipjoint rhipjoint lowerback
    lhipjoint lfemur
    lfemur ltibia
    ltibia lfoot
    lfoot ltoes
    rhipjoint rfemur
    rfemur rtibia
    rtibia rfoot
    rfoot rtoes
    lowerback upperback
    upperback thorax
    thorax lowerneck lclavicle rclavicle
    lowerneck upperneck
    upperneck head
    lclavicle lhumerus
    lhumerus lradius
    lradius lwrist
    lwrist lhand lthumb
    lhand lfingers
    rclavicle rhumerus
    rhumerus rradius
    rradius rwrist
    rwrist rhand rthumb
    rhand rfingers
  end

#!OML:ASF H:\Punching\Project 1\Capture day 1\Session 1\female.ASF
:FULLY-SPECIFIED
:DEGREES
305
root -0.894209 15.0078 6.25588 12.8008 -16.6957 -3.13708
lowerback -0.922133 -4.58576 -1.24511
upperback -5.34369 -6.19107 0.102898
thorax -4.86347 -3.04305 0.99785
lowerneck 2.27574 12.183 21.6973
upperneck 33.442 18.2856 -9.01267
head 14.1215 9.84405 -4.8532
rclavicle 1.10636e-014 1.74931e-014
rhumerus 7.60549 37.0081 -84.3064
rradius 128.801
rwrist -32.2671
rhand -19.9868 -5.73268
rfingers 7.12502
rthumb 6.3526 -35.6174
lclavicle 1.10636e-014 1.74931e-014
lhumerus 39.2422 4.10448 56.9323
lradius 50.705
lwrist -2.52408
lhand -9.58694 25.8901
lfingers 7.12502
lthumb 16.3814 55.2184
rfemur -44.5345 12.1663 13.5901
rtibia 41.0096
rfoot -10.0408 2.14139
rtoes -6.47418
lfemur 19.4431 10.1989 -8.1105
ltibia 2.54444e-014
lfoot -14.1189 8.60614
ltoes -26.0005
306
root -0.891113 15.0119 6.26144 12.7405 -15.9685 -3.03944
lowerback -0.937883 -4.54643 -1.05533
upperback -5.27728 -6.13057 0.138502
thorax -4.80153 -3.02059 0.923938
lowerneck 1.98751 12.0279 21.4614
upperneck 33.4214 18.0521 -9.08598
head 14.0965 9.70245 -4.8761
rclavicle -5.36253e-014 -2.8625e-014
rhumerus 7.75153 36.6187 -83.9202
rradius 129.118
rwrist -31.8553
rhand -20.0667 -5.61036
rfingers 7.12502
rthumb 6.27544 -35.4974
lclavicle -5.36253e-014 -2.8625e-014
lhumerus 38.381 3.7213 57.6983
lradius 54.4277
lwrist 3.27046
lhand -10.8573 26.902
lfingers 7.12502
lthumb 15.1579 56.3268
rfemur -44.3585 11.9888 13.4106
rtibia 41.1368
rfoot -10.1768 1.57441
rtoes -6.67418
lfemur 19.1838 9.19162 -8.28314
ltibia -3.49861e-014
lfoot -13.9503 9.12344
ltoes -26.3272
307
root -0.888724 15.0178 6.26743 12.7168 -15.1011 -2.91116
lowerback -0.99991 -4.45403 -0.836558
upperback -5.21854 -5.99976 0.135752
thorax -4.72943 -2.96515 0.789387
lowerneck 1.6044 11.8066 21.1787
upperneck 33.4154 17.6741 -9.04666
head 14.0494 9.50025 -4.86621
rclavicle 5.52443e-014 5.56597e-015
rhumerus 7.8224 36.1178 -83.596
rradius 129.512
rwrist -31.6289
rhand -20.1238 -5.50315
rfingers 7.12502
rthumb 6.22033 -35.3918
lclavicle 5.52443e-014 5.56597e-015
lhumerus 37.4698 3.06517 58.5459
lradius 58.8284
lwrist 9.48857
lhand -12.1755 27.889
lfingers 7.12502
lthumb 13.8879 57.4053
rfemur -44.2055 11.7937 13.1723
rtibia 41.2882
rfoot -10.3152 0.876057
rtoes -6.85666
lfemur 18.8325 8.05292 -8.46698
ltibia -6.36111e-015
lfoot -13.7431 9.64099
ltoes -26.672
308
root -0.887512 15.025 6.27404 12.7168 -14.0737 -2.76556
lowerback -1.08628 -4.33116 -0.594424
upperback -5.17531 -5.82909 0.108872
thorax -4.6643 -2.89106 0.615171
lowerneck 1.17008 11.5191 20.8493
upperneck 33.4222 17.1597 -8.89373
head 13.9744 9.2428 -4.82393
rclavicle -1.51232e-014 -1.43125e-014
rhumerus 7.81747 35.5383 -83.3345
rradius 129.966
rwrist -31.6496
rhand -20.1667 -5.38503
rfingers 7.12502
rthumb 6.17891 -35.2749
lclavicle -1.51232e-014 -1.43125e-014
lhumerus 36.4907 2.23726 59.5065
lradius 63.6989
lwrist 15.692
lhand -13.4038 28.7976
lfingers 7.12502
lthumb 12.7039 58.3912
rfemur -44.0457 11.5648 12.9024
rtibia 41.4646
rfoot -10.4636 0.0432993
rtoes -7.03716
lfemur 18.4072 6.76147 -8.63566
ltibia -3.49861e-014
lfoot -13.5066 10.158
ltoes -27.0336
309
root -0.888061 15.0334 6.28116 12.7308 -12.8701 -2.61695
lowerback -1.19496 -4.18902 -0.331262
upperback -5.14345 -5.63319 0.0702748
thorax -4.60042 -2.80526 0.415691
lowerneck 0.695956 11.1637 20.4526
upperneck 33.4541 16.5101 -8.62043
head 13.8754 8.92965 -4.74339
rclavicle 1.80024e-014 -6.36111e-015
rhumerus 7.76523 34.8768 -83.1078
rradius 130.45
rwrist -31.9366
rhand -20.172 -5.26813
rfingers 7.12502
rthumb 6.17379 -35.1582
lclavicle 1.80024e-014 -6.36111e-015
lhumerus 35.4441 1.29686 60.5909
lradius 68.8334
lwrist 21.4799
lhand -14.3986 29.5888
lfingers 7.12502
lthumb 11.7447 59.2395
rfemur -43.8571 11.292 12.6245
rtibia 41.6631
rfoot -10.6222 -0.912855
rtoes -7.17764
lfemur 16.8784 5.34505 -8.91844
ltibia 2.04757
lfoot -14.2816 10.6799
ltoes -27.39
310
root -0.890714 15.0428 6.28863 12.7471 -11.474 -2.45904
lowerback -1.31121 -4.04055 -0.064486
upperback -5.11767 -5.42964 0.0241823
thorax -4.53789 -2.71564 0.206296
lowerneck 0.18484 10.7442 19.9977
upperneck 33.5042 15.739 -8.24889
head 13.7591 8.56606 -4.63154
rclavicle -2.21707e-014 7.95139e-015
rhumerus 7.71598 34.1365 -82.883
rradius 130.933
rwrist -32.4893
rhand -20.1754 -5.20261
rfingers 7.12502
rthumb 6.17045 -35.0928
lclavicle -2.21707e-014 7.95139e-015
lhumerus 34.3295 0.274848 61.7735
lradius 74.0505
lwrist 26.5851
lhand -15.0613 30.2185
lfingers 7.12502
lthumb 11.1056 59.9047
rfemur -43.6175 10.9412 12.3483
rtibia 41.8842
rfoot -10.8027 -1.96889
rtoes -7.30638
lfemur 14.8192 3.73568 -9.16521
ltibia 5.05611
lfoot -15.5214 11.2258
ltoes -27.7609
311
root -0.895761 15.0532 6.29612 12.7619 -9.87963 -2.29105
lowerback -1.43232 -3.88942 0.195976
upperback -5.09948 -5.22315 -0.0195853
thorax -4.47775 -2.62391 0.00292452
lowerneck -0.343037 10.2559 19.4727
upperneck 33.5714 14.8533 -7.8006
head 13.6277 8.15278 -4.49439
rclavicle 4.37078e-014 2.14687e-014
rhumerus 7.68925 33.3123 -82.6246
rradius 131.394
rwrist -33.2914
rhand -20.1665 -5.15392
rfingers 7.12502
rthumb 6.17907 -35.0438
lclavicle 4.37078e-014 2.14687e-014
lhumerus 33.1388 -0.832913 63.0368
lradius 79.2132
lwrist 30.8648
lhand -15.342 30.7268
lfingers 7.12502
lthumb 10.8349 60.4273
rfemur -43.3166 10.4918 12.0821
rtibia 42.1254
rfoot -11.0094 -3.09653
rtoes -7.38827
lfemur 13.3142 1.89195 -9.22273
ltibia 6.87875
lfoot -16.139 11.7951
ltoes -28.134
312
root -0.903191 15.0641 6.30389 12.7553 -8.08981 -2.10405
lowerback -1.53471 -3.74684 0.431571
upperback -5.08829 -5.02843 -0.0498475
thorax -4.43026 -2.53638 -0.170661
lowerneck -0.862697 9.70989 18.877
upperneck 33.649 13.8902 -7.31828
head 13.4878 7.7026 -4.34299
rclavicle 4.95844e-014 -1.59028e-015
rhumerus 7.71431 32.4408 -82.3081
rradius 131.803
rwrist -34.2912
rhand -20.1826 -5.17592
rfingers 7.12502
rthumb 6.16357 -35.0663
lclavicle 4.95844e-014 -1.59028e-015
lhumerus 31.8575 -2.01489 64.3548
lradius 84.2264
lwrist 34.2793
lhand -15.3084 31.0859
lfingers 7.12502
lthumb 10.8672 60.7847
rfemur -42.9259 9.92401 11.8296
rtibia 42.3868
rfoot -11.2583 -4.26824
rtoes -7.45925
lfemur 11.9751 -0.165049 -9.17276
ltibia 8.30439
lfoot -16.5413 12.4
ltoes -28.5069
313
root -0.912974 15.0759 6.31175 12.7319 -6.10795 -1.88561
lowerback -1.61841 -3.61345 0.626896
upperback -5.08187 -4.84628 -0.0683464
thorax -4.39242 -2.45295 -0.307972
lowerneck -1.38138 9.1119 18.2308
upperneck 33.7357 12.8664 -6.83459
head 13.3513 7.22183 -4.18932
rclavicle 1.21756e-014 1.74931e-014
rhumerus 7.78812 31.53 -81.9141
rradius 132.169
rwrist -35.3654
rhand -20.2624 -5.31518
rfingers 7.12502
rthumb 6.08653 -35.2078
lclavicle 1.21756e-014 1.74931e-014
lhumerus 30.5032 -3.28594 65.7145
lradius 89.0415
lwrist 36.8854
lhand -15.066 31.275
lfingers 7.12502
lthumb 11.1011 60.9614
rfemur -42.4498 9.21996 11.5792
rtibia 42.6664
rfoot -11.5544 -5.4561
rtoes -7.47735
lfemur 10.7044 -2.42689 -9.04598
ltibia 9.49517
lfoot -16.8112 13.0533
ltoes -28.8613
